HIERARCHY
ROOT Hips
{
	OFFSET 0.000000 100.481300 0.000000
	CHANNELS 6 Xposition Yposition Zposition Xrotation Yrotation Zrotation
	JOINT Spine
	{
		OFFSET -0.279200 12.230698 -2.892100
		CHANNELS 3 Xrotation Yrotation Zrotation
		JOINT Spine1
		{
			OFFSET -0.325700 14.269203 -3.374200
			CHANNELS 3 Xrotation Yrotation Zrotation
			JOINT Spine2
			{
				OFFSET -0.372300 16.307602 -0.352600
				CHANNELS 3 Xrotation Yrotation Zrotation
				JOINT Neck
				{
					OFFSET -0.418800 17.814194 8.416900
					CHANNELS 3 Xrotation Yrotation Zrotation
					JOINT Head
					{
						OFFSET 0.000000 7.031097 3.806800
						CHANNELS 3 Xrotation Yrotation Zrotation
						JOINT HeadTop_End
						{
							OFFSET 0.000000 24.646606 12.978600
							CHANNELS 3 Xrotation Yrotation Zrotation
							End Site
							{
								OFFSET 0.000000 27.854965 0.000000
							}
						}
					}
				}
				JOINT LeftShoulder
				{
					OFFSET 16.952999 14.495407 -7.737500
					CHANNELS 3 Xrotation Yrotation Zrotation
					JOINT LeftArm
					{
						OFFSET 9.308998 -2.777710 0.208600
						CHANNELS 3 Xrotation Yrotation Zrotation
						JOINT LeftForeArm
						{
							OFFSET 29.972298 0.000000 0.000000
							CHANNELS 3 Xrotation Yrotation Zrotation
							JOINT LeftHand
							{
								OFFSET 26.026505 0.000000 0.000000
								CHANNELS 3 Xrotation Yrotation Zrotation
								JOINT LeftHandThumb1
								{
									OFFSET 12.240501 -7.147949 9.207150
									CHANNELS 3 Xrotation Yrotation Zrotation
									JOINT LeftHandThumb2
									{
										OFFSET 4.138618 -2.389435 2.389433
										CHANNELS 3 Xrotation Yrotation Zrotation
										JOINT LeftHandThumb3
										{
											OFFSET 2.726913 -1.574387 1.574386
											CHANNELS 3 Xrotation Yrotation Zrotation
											JOINT LeftHandThumb4
											{
												OFFSET 3.941010 -2.275345 2.275342
												CHANNELS 3 Xrotation Yrotation Zrotation
												End Site
												{
													OFFSET -0.005798 5.087799 0.009903
												}
											}
										}
									}
								}
								JOINT LeftHandIndex1
								{
									OFFSET 24.424698 -1.985611 5.953459
									CHANNELS 3 Xrotation Yrotation Zrotation
									JOINT LeftHandIndex2
									{
										OFFSET 6.426697 0.000000 0.000000
										CHANNELS 3 Xrotation Yrotation Zrotation
										JOINT LeftHandIndex3
										{
											OFFSET 5.337898 0.000000 0.000000
											CHANNELS 3 Xrotation Yrotation Zrotation
											JOINT LeftHandIndex4
											{
												OFFSET 4.409401 0.000000 0.000000
												CHANNELS 3 Xrotation Yrotation Zrotation
												End Site
												{
													OFFSET 0.000000 4.409363 0.014373
												}
											}
										}
									}
								}
								JOINT LeftHandMiddle1
								{
									OFFSET 23.810104 0.000000 0.000000
									CHANNELS 3 Xrotation Yrotation Zrotation
									JOINT LeftHandMiddle2
									{
										OFFSET 7.176498 0.000000 0.000000
										CHANNELS 3 Xrotation Yrotation Zrotation
										JOINT LeftHandMiddle3
										{
											OFFSET 6.774902 0.000000 0.000000
											CHANNELS 3 Xrotation Yrotation Zrotation
											JOINT LeftHandMiddle4
											{
												OFFSET 5.403328 0.000000 0.000000
												CHANNELS 3 Xrotation Yrotation Zrotation
												End Site
												{
													OFFSET -0.027702 5.403244 0.017414
												}
											}
										}
									}
								}
								JOINT LeftHandRing1
								{
									OFFSET 22.908401 -0.839279 -6.020567
									CHANNELS 3 Xrotation Yrotation Zrotation
									JOINT LeftHandRing2
									{
										OFFSET 6.337502 0.000000 0.000000
										CHANNELS 3 Xrotation Yrotation Zrotation
										JOINT LeftHandRing3
										{
											OFFSET 5.779297 0.000000 0.000000
											CHANNELS 3 Xrotation Yrotation Zrotation
											JOINT LeftHandRing4
											{
												OFFSET 4.965698 0.000000 0.000000
												CHANNELS 3 Xrotation Yrotation Zrotation
												End Site
												{
													OFFSET 0.000000 4.965668 0.016186
												}
											}
										}
									}
								}
								JOINT LeftHandPinky1
								{
									OFFSET 20.037003 -1.530319 -10.950146
									CHANNELS 3 Xrotation Yrotation Zrotation
									JOINT LeftHandPinky2
									{
										OFFSET 5.254700 0.000000 0.000000
										CHANNELS 3 Xrotation Yrotation Zrotation
										JOINT LeftHandPinky3
										{
											OFFSET 4.810204 0.000000 0.000000
											CHANNELS 3 Xrotation Yrotation Zrotation
											JOINT LeftHandPinky4
											{
												OFFSET 3.647202 0.000000 0.000000
												CHANNELS 3 Xrotation Yrotation Zrotation
												End Site
												{
													OFFSET 0.000000 3.647186 0.011889
												}
											}
										}
									}
								}
							}
						}
					}
				}
				JOINT RightShoulder
				{
					OFFSET -15.141001 14.495407 -7.737500
					CHANNELS 3 Xrotation Yrotation Zrotation
					JOINT RightArm
					{
						OFFSET -9.308998 -2.777710 0.208500
						CHANNELS 3 Xrotation Yrotation Zrotation
						JOINT RightForeArm
						{
							OFFSET -29.972300 0.000000 0.000000
							CHANNELS 3 Xrotation Yrotation Zrotation
							JOINT RightHand
							{
								OFFSET -26.026505 0.000000 0.000000
								CHANNELS 3 Xrotation Yrotation Zrotation
								JOINT RightHandThumb1
								{
									OFFSET -12.240601 -7.148026 9.207092
									CHANNELS 3 Xrotation Yrotation Zrotation
									JOINT RightHandThumb2
									{
										OFFSET -4.138618 -2.389435 2.389433
										CHANNELS 3 Xrotation Yrotation Zrotation
										JOINT RightHandThumb3
										{
											OFFSET -2.726974 -1.574417 1.574421
											CHANNELS 3 Xrotation Yrotation Zrotation
											JOINT RightHandThumb4
											{
												OFFSET -3.941010 -2.275345 2.275343
												CHANNELS 3 Xrotation Yrotation Zrotation
												End Site
												{
													OFFSET 0.005814 5.087799 0.009927
												}
											}
										}
									}
								}
								JOINT RightHandIndex1
								{
									OFFSET -24.424698 -1.985657 5.953444
									CHANNELS 3 Xrotation Yrotation Zrotation
									JOINT RightHandIndex2
									{
										OFFSET -6.426697 0.000000 0.000000
										CHANNELS 3 Xrotation Yrotation Zrotation
										JOINT RightHandIndex3
										{
											OFFSET -5.337898 0.000000 0.000000
											CHANNELS 3 Xrotation Yrotation Zrotation
											JOINT RightHandIndex4
											{
												OFFSET -4.409401 0.000000 0.000000
												CHANNELS 3 Xrotation Yrotation Zrotation
												End Site
												{
													OFFSET 0.000000 4.409363 0.014408
												}
											}
										}
									}
								}
								JOINT RightHandMiddle1
								{
									OFFSET -23.810097 0.000000 0.000000
									CHANNELS 3 Xrotation Yrotation Zrotation
									JOINT RightHandMiddle2
									{
										OFFSET -7.176498 0.000000 0.000000
										CHANNELS 3 Xrotation Yrotation Zrotation
										JOINT RightHandMiddle3
										{
											OFFSET -6.774902 0.000000 0.000000
											CHANNELS 3 Xrotation Yrotation Zrotation
											JOINT RightHandMiddle4
											{
												OFFSET -5.403328 0.000000 0.000000
												CHANNELS 3 Xrotation Yrotation Zrotation
												End Site
												{
													OFFSET 0.027702 5.403244 0.017457
												}
											}
										}
									}
								}
								JOINT RightHandRing1
								{
									OFFSET -22.908302 -0.839325 -6.020576
									CHANNELS 3 Xrotation Yrotation Zrotation
									JOINT RightHandRing2
									{
										OFFSET -6.337502 0.000000 0.000000
										CHANNELS 3 Xrotation Yrotation Zrotation
										JOINT RightHandRing3
										{
											OFFSET -5.779297 0.000000 0.000000
											CHANNELS 3 Xrotation Yrotation Zrotation
											JOINT RightHandRing4
											{
												OFFSET -4.965698 0.000000 0.000000
												CHANNELS 3 Xrotation Yrotation Zrotation
												End Site
												{
													OFFSET 0.000000 4.965668 0.016226
												}
											}
										}
									}
								}
								JOINT RightHandPinky1
								{
									OFFSET -20.037003 -1.530334 -10.950259
									CHANNELS 3 Xrotation Yrotation Zrotation
									JOINT RightHandPinky2
									{
										OFFSET -5.254700 0.000000 0.000000
										CHANNELS 3 Xrotation Yrotation Zrotation
										JOINT RightHandPinky3
										{
											OFFSET -4.810204 0.000000 0.000000
											CHANNELS 3 Xrotation Yrotation Zrotation
											JOINT RightHandPinky4
											{
												OFFSET -3.647202 0.000000 0.000000
												CHANNELS 3 Xrotation Yrotation Zrotation
												End Site
												{
													OFFSET 0.000000 3.647186 0.011917
												}
											}
										}
									}
								}
							}
						}
					}
				}
			}
		}
	}
	JOINT LeftUpLeg
	{
		OFFSET 15.427100 -6.655098 0.678600
		CHANNELS 3 Xrotation Yrotation Zrotation
		JOINT LeftLeg
		{
			OFFSET 4.081073 -39.591068 13.024000
			CHANNELS 3 Xrotation Yrotation Zrotation
			JOINT LeftFoot
			{
				OFFSET -4.081074 -37.707932 -15.979700
				CHANNELS 3 Xrotation Yrotation Zrotation
				JOINT LeftToeBase
				{
					OFFSET 5.346399 -15.068900 20.645000
					CHANNELS 3 Xrotation Yrotation Zrotation
					JOINT LeftToe_End
					{
						OFFSET 2.754700 0.931300 11.300900
						CHANNELS 3 Xrotation Yrotation Zrotation
						End Site
						{
							OFFSET 0.000000 11.669021 0.000000
						}
					}
				}
			}
		}
	}
	JOINT RightUpLeg
	{
		OFFSET -15.569500 -6.655098 0.678600
		CHANNELS 3 Xrotation Yrotation Zrotation
		JOINT RightLeg
		{
			OFFSET -4.081825 -39.591045 13.023800
			CHANNELS 3 Xrotation Yrotation Zrotation
			JOINT RightFoot
			{
				OFFSET 4.081824 -37.707954 -15.979600
				CHANNELS 3 Xrotation Yrotation Zrotation
				JOINT RightToeBase
				{
					OFFSET -5.346400 -15.068900 20.645000
					CHANNELS 3 Xrotation Yrotation Zrotation
					JOINT RightToe_End
					{
						OFFSET -2.754700 0.931300 11.300900
						CHANNELS 3 Xrotation Yrotation Zrotation
						End Site
						{
							OFFSET 0.000000 11.669021 0.000000
						}
					}
				}
			}
		}
	}
}
MOTION
Frames: 5
Frame Time: 0.033333
-1.227055 149.896454 10.542282 -21.121436 -32.341202 3.221448 14.776822 -0.379870 -4.108916 29.514535 -1.721862 -6.705813 29.514518 -1.721852 -6.705814 1.865613 4.451086 -6.518790 2.113183 7.328649 1.554788 0.000002 0.000001 -0.000000 -4.113446 1.671400 0.666201 -27.705803 8.108607 5.973640 -11.421871 -18.011653 -9.829106 -3.601900 -16.375583 34.301739 9.163576 4.814010 -5.499033 1.343689 3.756120 1.301212 0.000004 -0.000005 0.000001 -0.000001 0.000001 0.000000 -0.901926 -6.981011 -3.808491 0.572921 2.619678 -16.664748 0.000001 0.000001 -0.000000 -0.000000 -0.000001 -0.000000 1.947817 9.683018 -14.539974 -1.256748 -1.264888 -21.899110 0.000000 0.000004 -0.000001 0.000002 -0.000001 0.000000 2.605799 14.896830 -31.345480 -0.576920 -2.712310 -32.011871 -0.000006 0.000011 0.000007 -0.000002 0.000002 0.000001 4.170518 18.495046 -34.987603 -0.706831 -5.788539 -39.373264 -0.000003 0.000000 0.000004 -0.000001 0.000003 -0.000000 -5.378318 -12.971023 -1.368815 -23.271038 -14.249989 -1.670389 -4.396308 27.833111 3.351026 1.715186 5.883098 -37.145478 -8.895836 -4.903095 -0.383557 7.908097 -19.198898 -2.856237 -0.000002 0.000003 -0.000015 -0.000002 0.000001 -0.000002 -1.085518 -1.215512 4.525192 -1.322439 3.765308 16.462889 0.000000 -0.000001 0.000000 -0.000000 -0.000000 -0.000001 -0.663649 -2.903942 12.731472 -0.660564 1.813266 30.578750 -0.000007 0.000003 -0.000001 -0.000001 -0.000001 0.000000 2.423610 -7.404617 21.763182 -0.989725 3.764115 37.430912 0.000001 -0.000001 0.000002 -0.000002 -0.000002 0.000001 3.481034 -10.055142 24.322635 -1.458349 7.871829 41.091719 -0.000000 0.000001 0.000001 -0.000000 0.000001 0.000002 -77.683498 -7.963457 25.276339 118.522852 -9.416830 -4.573528 11.252093 -0.934722 -18.033252 -1.475974 0.000852 0.003162 0.000001 0.000000 0.000000 -78.408605 -16.941775 -17.425570 127.534768 1.031248 -6.651066 32.599199 4.567765 22.610380 2.802719 -0.003079 0.006081 -0.000001 -0.000000 0.000001 
-4.401114 153.736420 18.601398 -16.266608 -32.723651 6.730913 14.946300 -0.439725 -5.546087 29.839929 -2.476028 -7.950443 29.839939 -2.476028 -7.950444 -4.311142 4.645325 -7.468691 6.289234 6.638423 2.899501 -0.000001 -0.000000 -0.000000 -2.749775 0.066840 -2.957858 -27.729298 4.488085 10.863566 -14.135842 -20.938843 -12.729883 -8.147986 -20.461430 44.112613 7.521557 2.108703 -3.142409 1.440603 3.839373 0.507257 0.000006 -0.000005 0.000000 -0.000001 0.000002 -0.000000 -1.199995 -7.536699 -3.382113 0.415039 2.773515 -15.791392 0.000001 -0.000000 -0.000000 -0.000000 -0.000000 0.000000 1.725364 8.936882 -14.493373 -1.209866 -1.135398 -20.425194 -0.000000 0.000009 -0.000000 -0.000000 -0.000002 0.000001 2.103746 14.534347 -31.093955 -0.202500 -2.667234 -30.226387 -0.000005 0.000010 0.000009 0.000000 -0.000000 -0.000002 3.928118 18.083846 -35.481989 -0.307369 -5.795976 -37.229681 -0.000002 -0.000000 -0.000002 -0.000001 -0.000001 -0.000002 -3.275721 -7.619848 0.034248 -21.186801 -18.007626 -2.912249 -0.690960 29.961199 3.363960 3.055155 4.935082 -36.415495 -5.659005 -6.048491 3.098794 7.717269 -19.248407 -3.244804 -0.000000 0.000002 -0.000016 -0.000001 0.000003 0.000001 -1.122987 -0.708678 10.976079 -1.344504 3.948724 18.238106 0.000001 -0.000000 0.000002 -0.000001 0.000000 -0.000000 -0.881656 -2.326803 18.981618 -0.686347 1.967133 31.892486 -0.000007 0.000005 0.000000 -0.000003 0.000000 -0.000001 2.101431 -6.633314 28.139973 -0.992989 3.754857 38.947685 0.000002 -0.000000 0.000001 0.000001 -0.000001 0.000001 3.063750 -10.032238 31.218158 -1.327487 7.907055 42.731535 0.000000 -0.000003 -0.000002 -0.000001 -0.000003 -0.000001 -94.863302 -11.820691 30.331060 117.133878 -4.561386 -3.084459 22.182510 -3.445245 -20.458110 -1.447000 0.000855 0.001734 0.000001 0.000000 -0.000000 -72.226512 -4.415049 -26.294654 129.479910 6.767613 -1.227600 36.518832 4.147914 13.215578 2.747667 -0.003044 0.003392 -0.000001 0.000000 0.000001 
-7.519070 155.675842 25.550606 -10.327168 -31.354345 9.434364 14.428706 0.346359 -6.463522 28.779904 -2.860258 -8.549052 28.779910 -2.860263 -8.549045 -8.335105 4.596087 -9.380502 7.667302 5.009613 5.282788 0.000001 0.000000 -0.000000 0.341389 -7.826814 -6.685036 -28.896929 4.008368 23.050039 -15.689974 -21.443811 -15.318641 -10.976358 -26.995351 51.201967 3.661899 -4.118084 2.025026 1.758882 4.002814 -1.357045 0.000007 -0.000005 0.000005 -0.000001 -0.000002 -0.000001 -1.929410 -8.872169 -2.657568 0.002498 3.111920 -13.832929 0.000001 0.000001 -0.000001 0.000000 -0.000000 -0.000001 1.186880 7.062267 -14.602378 -1.109126 -0.834455 -17.040827 -0.000001 0.000009 -0.000000 0.000000 0.000000 0.000000 0.858396 13.561250 -30.692432 0.723448 -2.465229 -26.108683 -0.000004 0.000011 0.000009 0.000000 0.000001 -0.000000 3.255834 16.984438 -36.802705 0.698135 -5.682717 -32.200336 0.000000 0.000001 -0.000002 -0.000001 0.000001 -0.000001 -1.403773 -0.831022 0.783758 -20.019105 -21.592637 -5.741927 3.702977 35.688999 3.421049 5.447031 4.844865 -35.265455 -1.652706 -7.554226 6.337628 7.378409 -19.011808 -3.624444 -0.000004 0.000006 -0.000011 -0.000001 -0.000003 0.000000 -1.324764 0.198513 23.450107 -1.421072 4.397125 22.378596 -0.000000 0.000001 0.000002 -0.000000 0.000001 0.000000 -1.439402 -1.489570 31.306496 -0.743107 2.321127 35.080562 -0.000006 0.000004 0.000000 0.000001 0.000002 0.000002 1.291736 -5.380648 40.748133 -1.122542 3.876982 42.593869 0.000003 -0.000005 0.000005 -0.000001 0.000002 -0.000001 1.931016 -9.638365 44.887529 -1.206172 8.232837 46.675563 -0.000001 -0.000002 -0.000000 0.000001 -0.000003 -0.000002 -110.055917 -13.848458 33.288535 111.304920 0.256303 -1.121619 28.460399 -5.006607 -16.989646 -1.366792 0.000799 0.000059 -0.000001 0.000000 -0.000001 -42.168236 20.144400 -59.087085 117.629081 36.249252 22.237885 41.417126 4.005948 -3.917292 2.595374 -0.002903 0.000139 -0.000000 0.000001 0.000001 
-9.861602 155.971542 32.029861 -4.925891 -29.591907 10.454631 13.609414 2.190849 -7.094179 27.072816 -2.666660 -8.652181 27.072821 -2.666669 -8.652174 -14.011234 4.870013 -11.082394 9.909876 3.438824 7.160193 0.000001 -0.000001 -0.000000 2.455339 -16.120840 -7.977232 -30.125782 2.254219 33.282299 -15.398081 -20.413596 -15.409194 -9.989870 -32.580685 55.817477 -0.937408 -10.919804 7.467817 2.328053 4.099408 -3.516087 0.000006 -0.000006 0.000004 -0.000000 0.000000 -0.000001 -2.894460 -10.461406 -2.461943 -0.563174 3.459243 -11.783601 -0.000000 0.000000 0.000002 0.000000 0.000000 -0.000001 0.484196 4.616963 -15.236388 -1.014257 -0.496233 -13.301417 -0.000001 0.000006 -0.000000 0.000001 -0.000001 -0.000001 -0.760621 12.176127 -30.670527 1.888129 -2.043600 -21.519997 -0.000004 0.000008 0.000010 0.000001 0.000001 -0.000003 2.217898 15.411818 -38.706945 1.986424 -5.283465 -26.396494 -0.000001 -0.000001 -0.000000 -0.000000 0.000001 -0.000002 -0.708083 4.067918 0.439082 -20.218062 -21.871119 -9.062999 8.215741 41.166909 2.092154 9.610614 7.800808 -33.913839 0.906856 -7.816404 8.388193 6.675677 -17.942746 -3.976271 -0.000002 0.000004 -0.000014 -0.000002 -0.000001 -0.000002 -1.502022 0.750894 31.620651 -1.553237 4.943452 27.107264 -0.000001 -0.000001 0.000000 -0.000000 -0.000003 -0.000002 -1.971534 -1.065264 40.019263 -0.807084 2.742670 39.010943 -0.000003 0.000003 -0.000004 -0.000001 0.000001 -0.000001 0.506478 -4.583206 49.759707 -1.314550 4.031039 47.032700 0.000003 -0.000003 -0.000000 0.000000 0.000000 -0.000002 1.084572 -9.774617 55.174186 -1.056375 8.673281 51.451590 0.000000 0.000002 -0.000001 -0.000000 0.000002 -0.000002 -116.842352 -16.481036 38.004562 102.526351 0.005099 -4.267788 29.087617 -4.303564 -11.547876 -1.245480 0.000661 0.000188 0.000000 0.000000 -0.000000 -54.147783 5.710155 -42.267325 126.754596 17.147352 1.978914 33.851060 3.543413 -1.857053 2.365047 -0.002403 0.000157 -0.000000 -0.000001 0.000001 
-11.233094 155.579636 38.924583 -0.178336 -27.630094 10.583643 12.647391 3.980689 -7.638875 25.037754 -2.098199 -8.391231 25.037759 -2.098199 -8.391225 -23.710264 6.634097 -14.442937 15.738566 2.326123 10.168985 0.000002 0.000000 0.000000 2.835864 -20.104761 -7.034695 -30.965868 -2.744953 35.456396 -14.846757 -21.193681 -13.608075 -4.606244 -34.285565 59.912500 -4.701326 -15.118629 11.792362 3.146125 3.954434 -5.195108 0.000007 -0.000005 -0.000007 0.000000 0.000001 -0.000006 -4.058883 -11.992236 -3.141059 -1.224918 3.742244 -10.256191 -0.000000 -0.000000 -0.000001 -0.000000 0.000000 -0.000000 -0.389100 1.893382 -16.428936 -0.947066 -0.251195 -10.215218 -0.000001 0.000008 -0.000001 0.000000 0.000000 0.000001 -2.634443 10.509027 -31.178106 3.129170 -1.448440 -17.686758 -0.000005 0.000011 0.000006 -0.000000 0.000000 0.000000 0.794327 13.508245 -40.807757 3.373597 -4.592561 -21.279092 0.000000 0.000000 -0.000003 0.000000 -0.000000 0.000001 -1.502291 6.740530 -3.443542 -20.401951 -20.564829 -10.161387 11.284742 50.325947 -0.458525 13.548630 11.120614 -32.397510 0.807241 -6.045374 8.165848 5.381842 -15.487461 -4.247837 0.000001 0.000006 -0.000014 -0.000001 0.000000 -0.000001 -1.337895 0.735699 30.639030 -1.644024 5.371749 31.238430 0.000000 0.000001 0.000004 0.000001 0.000001 -0.000001 -2.248781 -1.011548 41.481849 -0.837869 3.148118 43.147418 -0.000003 0.000002 -0.000001 -0.000001 0.000001 0.000002 0.180844 -4.275880 51.815106 -1.543009 4.155992 51.579140 -0.000000 -0.000003 0.000006 -0.000000 -0.000003 0.000001 0.604104 -10.462567 59.025532 -0.796598 9.073333 56.280854 0.000003 0.000000 -0.000000 0.000002 -0.000001 -0.000001 -121.610890 -13.541121 41.086467 93.986033 0.109012 -6.221527 22.814881 -2.033996 -6.674586 -1.093431 0.000518 0.000031 0.000000 -0.000000 -0.000000 -47.583097 -1.764806 -36.076612 122.213818 13.276043 -5.135530 29.327050 4.340619 1.992590 2.076325 -0.001846 0.000118 -0.000000 0.000000 0.000001 
